<?xml version="1.0" standalone="no"?><!DOCTYPE svg PUBLIC "-//W3C//DTD SVG 1.1//EN" "http://www.w3.org/Graphics/SVG/1.1/DTD/svg11.dtd"><svg t="1724490684957" class="icon" viewBox="0 0 1024 1024" version="1.1" xmlns="http://www.w3.org/2000/svg" p-id="6138" xmlns:xlink="http://www.w3.org/1999/xlink" width="200" height="200"><path d="M513.365333 955.733333a443.733333 443.733333 0 1 1 443.733334-443.733333A444.279467 444.279467 0 0 1 513.365333 955.733333z m0-832.853333a389.12 389.12 0 1 0 389.12 389.12A389.5296 389.5296 0 0 0 513.365333 122.88z" fill="#515151" p-id="6139"></path><path d="M513.365333 211.3536a27.306667 27.306667 0 0 1-27.306666-27.306667V95.573333a27.306667 27.306667 0 0 1 54.613333 0v88.4736a27.306667 27.306667 0 0 1-27.306667 27.306667zM185.412267 539.306667H96.938667a27.306667 27.306667 0 1 1 0-54.613334h88.4736a27.306667 27.306667 0 0 1 0 54.613334zM929.792 539.306667h-88.4736a27.306667 27.306667 0 1 1 0-54.613334h88.4736a27.306667 27.306667 0 0 1 0 54.613334zM513.365333 955.733333a27.306667 27.306667 0 0 1-27.306666-27.306666v-88.4736a27.306667 27.306667 0 0 1 54.613333 0V928.426667a27.306667 27.306667 0 0 1-27.306667 27.306666zM712.430933 735.232a27.306667 27.306667 0 0 1-19.114666-7.918933L494.250667 531.387733a27.306667 27.306667 0 0 1-8.192-19.387733V290.133333a27.306667 27.306667 0 0 1 54.613333 0v210.397867l191.146667 188.0064a27.306667 27.306667 0 0 1-19.114667 46.6944z" fill="#515151" p-id="6140"></path></svg>